<svg xmlns="http://www.w3.org/2000/svg" viewBox="0 0 48 48" width="48" height="48">
  <path fill="#4285F4" d="M45.12 24.56c0-1.38-.12-2.72-.34-4H24v7.5h11.94c-.55 2.86-2.11 5.27-4.32 6.91v5.74h6.97c4.08-3.76 6.53-9.3 6.53-16.15z"/>
  <path fill="#34A853" d="M24 46c5.88 0 10.8-1.96 14.4-5.3l-6.97-5.74c-1.93 1.3-4.4 2.1-7.43 2.1-5.7 0-10.5-3.85-12.24-9.05H4.5v5.89C8.08 40.14 15.4 46 24 46z"/>
  <path fill="#FBBC05" d="M11.76 27c-.44-1.3-.7-2.7-.7-4.14s.26-2.84.7-4.14v-5.89H4.5C3.08 15.06 2 18.4 2 22s1.08 6.94 2.5 9.17l7.26-5.89z"/>
  <path fill="#EA4335" d="M24 9.5c3.08 0 5.86 1.06 8.06 3.12l5.96-5.96C34.8 2.12 29.88 0 24 0 15.4 0 8.08 5.86 4.5 14.14l7.26 5.89c1.74-5.2 6.54-9.05 12.24-9.05z"/>
</svg>
